<svg width="48" height="48" viewBox="0 0 48 48" fill="none" xmlns="http://www.w3.org/2000/svg">
  <!-- Windows 95 style CuratedStack logo: Stack of windows with vintage computing aesthetic -->
  
  <!-- Back window (darkest) -->
  <rect x="20" y="20" width="24" height="20" fill="#008080" stroke="#000" stroke-width="2"/>
  <rect x="20" y="20" width="24" height="4" fill="#C0C0C0"/>
  <circle cx="23" cy="22" r="1" fill="#000"/>
  <rect x="40" y="20" width="2" height="2" fill="#000"/>
  
  <!-- Middle window -->
  <rect x="12" y="12" width="24" height="20" fill="#008080" stroke="#000" stroke-width="2"/>
  <rect x="12" y="12" width="24" height="4" fill="#C0C0C0"/>
  <circle cx="15" cy="14" r="1" fill="#000"/>
  <rect x="32" y="12" width="2" height="2" fill="#000"/>
  
  <!-- Front window (lightest) -->
  <rect x="4" y="4" width="24" height="20" fill="#008080" stroke="#000" stroke-width="2"/>
  <rect x="4" y="4" width="24" height="4" fill="#C0C0C0"/>
  <circle cx="7" cy="6" r="1" fill="#000"/>
  <circle cx="11" cy="6" r="1" fill="#000"/>
  <rect x="24" y="4" width="2" height="2" fill="#000"/>
  
  <!-- Content area (white) -->
  <rect x="6" y="10" width="20" height="12" fill="#FFFFFF"/>
  
  <!-- "Curated" badge -->
  <rect x="8" y="12" width="6" height="2" fill="#FF0000"/>
  <rect x="8" y="15" width="8" height="2" fill="#000080"/>
  <rect x="8" y="18" width="10" height="2" fill="#FFFF00"/>
</svg>
